# xmcd CD database file
#
# Track frame offsets:
#	150
#	20536
#	34729
#	59911
#	78415
#	98903
#	115091
#	125888
#	146124
#	162050
#	179335
#	193615
#
# Disc length: 2782 seconds
#
# Revision: 0
# Processed by: cddbd v1.5.2PL0 Copyright (c) Steve Scherf et al.
# Submitted via: CDex 1.70beta2
#
DISCID=ab0adc0c
DTITLE=Ricketts, Allan - Cdn. - Torbay, NL - Allan Rickets
DYEAR=2006
DGENRE=Country
TTITLE0=The Goverment Game
TTITLE1=West Moon
TTITLE2=West Coast of Clare
TTITLE3=The Queen of Connemara
TTITLE4=Black Is the Colour
TTITLE5=Frank Maher's Tune - John McKenna's
TTITLE6=Helplessly Hoping
TTITLE7=Lakes of Pontchartrain
TTITLE8=Don't Think Twice
TTITLE9=Can't Believe I Found You
TTITLE10=Mary and the Soldier
TTITLE11=Everytime
EXTD=YEAR: 2006
EXTT0=
EXTT1=
EXTT2=
EXTT3=
EXTT4=
EXTT5=
EXTT6=
EXTT7=
EXTT8=
EXTT9=
EXTT10=
EXTT11=
PLAYORDER=
